<svg width="15" height="15" viewBox="0 0 15 15" fill="none" xmlns="http://www.w3.org/2000/svg">
<path fill-rule="evenodd" clip-rule="evenodd" d="M14.9996 14.3648H12.0773V9.3876C12.0773 8.02299 11.5588 7.2604 10.4787 7.2604C9.30373 7.2604 8.68984 8.05399 8.68984 9.3876V14.3648H5.87364V4.88332H8.68984V6.16047C8.68984 6.16047 9.5366 4.59365 11.5486 4.59365C13.5598 4.59365 14.9996 5.82175 14.9996 8.36171V14.3648ZM2.51392 3.6418C1.55466 3.6418 0.777344 2.85838 0.777344 1.89219C0.777344 0.925992 1.55466 0.142578 2.51392 0.142578C3.47318 0.142578 4.25003 0.925992 4.25003 1.89219C4.25003 2.85838 3.47318 3.6418 2.51392 3.6418ZM1.05975 14.3648H3.99633V4.88332H1.05975V14.3648Z" fill="white"/>
</svg>
