<svg width="236" height="32" viewBox="0 0 236 32" fill="none" xmlns="http://www.w3.org/2000/svg">
<g clip-path="url(#clip0_1_12272)">
<path d="M21.6482 21.0901H0.392578C2.16451 14.2263 5.91713 8.78974 11.9133 5.06101C19.7367 0.195433 27.9776 -0.209507 36.4575 3.19351C28.7812 6.90966 23.8377 12.8517 21.6482 21.0901Z" fill="white"/>
<path d="M36.6143 3.23385C51.2148 -3.36342 68.9127 5.04853 72.6364 21.0802H51.4235C49.2404 12.8569 44.2956 6.91227 36.6143 3.23385V3.23385Z" fill="#BF0A27"/>
</g>
<path d="M194.332 24.8274H191.214C191.214 24.685 191.214 24.5572 191.214 24.4281C191.212 21.2366 191.232 18.045 191.193 14.8535C191.183 14.0789 191.041 13.2896 190.845 12.5403C190.557 11.4423 189.803 10.8128 188.733 10.6957C188.252 10.6424 187.741 10.6597 187.269 10.7675C186.185 11.0164 185.565 11.8283 185.311 12.9183C185.15 13.6091 185.062 14.3371 185.056 15.0491C185.03 18.1635 185.045 21.2778 185.045 24.3908V24.8141H181.929V24.3802C181.929 21.355 181.932 18.3298 181.926 15.3033C181.925 14.3943 181.877 13.4906 181.599 12.6162C181.19 11.3319 180.339 10.6717 179.056 10.6611C177.464 10.6478 176.537 11.2653 176.08 12.7094C175.929 13.1858 175.819 13.7009 175.808 14.2013C175.763 16.195 175.76 18.1888 175.75 20.1825C175.742 21.5893 175.749 22.9974 175.749 24.4042C175.749 24.5346 175.749 24.665 175.749 24.8181H172.669V7.97261H175.742V9.4486C176.874 8.02452 178.327 7.52276 180.007 7.61193C181.711 7.70243 183.073 8.4198 183.907 9.97431C184.266 9.62827 184.616 9.28224 184.976 8.94817C185.885 8.10171 186.973 7.70909 188.161 7.62524C189.277 7.54671 190.381 7.61592 191.416 8.14164C192.692 8.7898 193.418 9.91176 193.847 11.2893C194.195 12.4046 194.328 13.5598 194.336 14.723C194.356 18.0144 194.343 21.3058 194.342 24.5971C194.342 24.6624 194.336 24.7276 194.331 24.8261L194.332 24.8274Z" fill="white"/>
<path d="M116.56 23.329C116.553 23.5047 116.544 23.6205 116.544 23.7363C116.544 25.4984 116.539 27.2592 116.549 29.0214C116.55 29.2623 116.486 29.398 116.278 29.5098C115.417 29.9663 114.567 30.4441 113.713 30.9113C113.633 30.9552 113.546 30.9885 113.449 31.0324V7.96619H116.539V9.53934C116.696 9.40492 116.788 9.32772 116.88 9.24787C117.794 8.43867 118.794 7.81713 120.002 7.66008C122.129 7.38325 124.186 8.17914 125.439 10.2527C126.217 11.541 126.578 12.9784 126.741 14.4744C126.928 16.1979 126.939 17.9228 126.559 19.6251C126.137 21.5176 125.313 23.148 123.727 24.2394C121.538 25.7473 118.708 25.4611 116.807 23.5579C116.742 23.4927 116.674 23.4328 116.562 23.329H116.56ZM116.504 16.347C116.504 17.4317 116.494 18.5177 116.513 19.6024C116.516 19.8021 116.596 20.0376 116.715 20.1907C117.271 20.8987 117.953 21.4471 118.756 21.8051C119.847 22.2909 120.937 22.3335 121.978 21.672C122.852 21.1157 123.252 20.204 123.483 19.2005C123.802 17.8177 123.789 16.4162 123.643 15.0134C123.553 14.1417 123.382 13.2899 123.004 12.498C122.328 11.0792 121.004 10.4031 119.527 10.7092C118.35 10.9541 117.452 11.6648 116.687 12.5938C116.583 12.7202 116.514 12.9239 116.511 13.0929C116.496 14.1776 116.504 15.2623 116.504 16.3483V16.347Z" fill="white"/>
<path d="M232.904 9.50191C232.904 8.52901 232.904 7.63329 232.904 6.73892C232.904 5.60896 232.901 4.47901 232.909 3.34906C232.909 3.24259 232.943 3.07755 233.011 3.03896C233.976 2.49328 234.952 1.96358 235.962 1.40991V24.8142H232.905V23.2623C232.653 23.4779 232.457 23.6523 232.255 23.8186C230.319 25.4157 227.893 25.6619 225.874 24.4548C224.578 23.6802 223.787 22.4651 223.292 21.021C222.619 19.0619 222.497 17.0269 222.629 14.9667C222.716 13.6078 222.991 12.2942 223.603 11.083C224.806 8.6967 226.684 7.49089 229.254 7.62531C230.508 7.69052 231.588 8.27347 232.529 9.14256C232.637 9.24238 232.743 9.34752 232.905 9.50324L232.904 9.50191ZM232.949 16.4267C232.949 15.3526 232.956 14.2786 232.941 13.2045C232.939 13.0235 232.873 12.8092 232.767 12.6695C232.211 11.9455 231.527 11.3825 230.715 11.0125C228.905 10.186 226.752 10.6784 226.033 13.2791C225.681 14.5554 225.674 15.8571 225.739 17.1614C225.787 18.1236 225.937 19.0712 226.286 19.9736C226.901 21.5627 228.142 22.3453 229.752 22.1137C231.075 21.9234 232.046 21.1049 232.868 20.0561C232.938 19.9683 232.945 19.8086 232.946 19.6821C232.953 18.5974 232.95 17.5114 232.95 16.4267H232.949Z" fill="white"/>
<path d="M106.38 14.6592C106.377 13.8726 106.462 13.1087 106.231 12.3687C105.882 11.2414 105.068 10.721 104.014 10.6039C102.374 10.4215 100.805 10.7064 99.3362 11.5289C99.2921 11.5541 99.2444 11.5728 99.1815 11.6021C98.779 10.7742 98.3842 9.9597 97.9729 9.11457C98.608 8.68468 99.2708 8.34796 99.9813 8.12703C101.988 7.50283 104.016 7.34844 106.039 8.00724C108.055 8.66339 109.266 10.335 109.404 12.5603C109.426 12.9024 109.436 13.2457 109.437 13.5891C109.44 17.1786 109.438 20.7681 109.438 24.3563V24.8128H106.385V23.201C106.111 23.4406 105.893 23.6402 105.667 23.8266C103.596 25.5301 100.658 25.6726 98.559 24.162C97.3605 23.2995 96.7267 22.0684 96.5192 20.5751C96.3808 19.5769 96.411 18.5841 96.7204 17.6218C97.2888 15.857 98.5376 14.8681 100.174 14.4103C102.191 13.846 104.209 13.8846 106.199 14.6033C106.247 14.6206 106.294 14.6339 106.377 14.6592H106.38ZM106.386 18.8702C106.386 18.5708 106.371 18.2713 106.391 17.9732C106.408 17.727 106.331 17.6005 106.109 17.502C105.369 17.1693 104.593 16.9923 103.798 16.9391C102.87 16.8778 101.934 16.8179 101.035 17.1786C100.33 17.4621 99.7637 17.9093 99.5286 18.7039C99.2029 19.8019 99.5349 21.5387 101.209 22.0312C102.958 22.5462 104.46 22.0045 105.785 20.7601C106.215 20.3555 106.501 19.9097 106.39 19.2668C106.367 19.1377 106.386 19.002 106.386 18.8689V18.8702Z" fill="white"/>
<path d="M157.642 14.6753C157.587 13.9007 157.606 13.1727 157.469 12.4792C157.254 11.3999 156.369 10.7078 155.215 10.5973C153.583 10.4403 152.026 10.7105 150.566 11.525C150.522 11.5503 150.474 11.5689 150.403 11.6035C150.001 10.7783 149.605 9.96381 149.17 9.06943C149.747 8.78993 150.294 8.46386 150.878 8.25091C152.925 7.50293 155.015 7.34588 157.116 7.95678C159.266 8.58231 160.625 10.4483 160.641 12.7987C160.666 16.7209 160.654 20.6444 160.657 24.568C160.657 24.6439 160.647 24.7184 160.639 24.8182H157.596V23.2158C157.473 23.3209 157.401 23.3755 157.337 23.438C155.361 25.3293 152.628 25.7525 150.335 24.5041C148.691 23.6111 147.865 22.1324 147.706 20.2239C147.594 18.8743 147.739 17.566 148.514 16.4188C149.349 15.1837 150.548 14.5861 151.903 14.2653C153.222 13.9526 155.736 13.886 157.642 14.6766V14.6753ZM157.593 18.8783C157.593 18.5682 157.581 18.2568 157.597 17.948C157.61 17.7151 157.534 17.594 157.326 17.5008C156.563 17.1601 155.766 16.9857 154.949 16.9352C154.104 16.8833 153.25 16.83 152.425 17.1188C151.597 17.4076 150.937 17.8948 150.711 18.8437C150.37 20.2678 151.102 21.6493 152.441 22.0353C154.3 22.5716 155.853 21.9368 157.197 20.5646C157.495 20.2598 157.654 19.9231 157.597 19.4759C157.572 19.2803 157.593 19.078 157.593 18.8783V18.8783Z" fill="white"/>
<path d="M209.315 24.8275H206.229V7.97008H209.297V9.50197C209.383 9.43409 209.425 9.41147 209.454 9.37553C210.332 8.25889 211.505 7.75048 212.83 7.62804C213.936 7.52556 215.024 7.66397 216.041 8.19634C217.425 8.92036 218.181 10.1621 218.616 11.67C218.909 12.6842 219.027 13.729 219.032 14.7817C219.046 18.0398 219.037 21.2966 219.037 24.5547C219.037 24.6305 219.028 24.7064 219.022 24.8115H215.922C215.922 24.6731 215.922 24.544 215.922 24.4136C215.918 21.234 215.937 18.0531 215.894 14.8736C215.884 14.1229 215.736 13.3523 215.523 12.6336C215.2 11.5449 214.451 10.8861 213.363 10.7158C212.298 10.5494 211.287 10.6559 210.455 11.4784C209.77 12.1558 209.487 13.0422 209.385 13.9978C209.331 14.5022 209.321 15.0133 209.32 15.5231C209.313 18.4817 209.317 21.4403 209.317 24.3976V24.8289L209.315 24.8275Z" fill="white"/>
<path d="M138.522 10.9701H136.273V7.95819H138.522V7.5669C138.522 6.17076 138.519 4.77463 138.528 3.37849C138.528 3.26936 138.582 3.10432 138.66 3.05907C139.611 2.50408 140.572 1.96772 141.577 1.39941V7.9369H145.537V10.9607H141.611C141.604 11.1111 141.594 11.2283 141.594 11.3441C141.594 14.3027 141.592 17.2613 141.597 20.22C141.597 20.4848 141.622 20.7523 141.667 21.0119C141.793 21.7505 142.229 22.1312 142.952 22.1764C143.756 22.227 144.511 22.0327 145.237 21.6893C145.332 21.644 145.426 21.5961 145.552 21.5349C145.459 22.2962 145.318 23.0255 145.294 23.7589C145.273 24.3937 144.952 24.6266 144.454 24.7983C143.453 25.1444 142.436 25.2988 141.392 25.147C139.923 24.9328 138.922 23.8334 138.658 22.1511C138.576 21.6294 138.532 21.0944 138.53 20.566C138.518 17.5182 138.523 14.4717 138.523 11.4239V10.9714L138.522 10.9701Z" fill="white"/>
<path d="M94.1557 22.1724C93.1659 23.5207 91.8945 24.64 90.149 25.0272C86.8315 25.7632 83.8385 24.2021 82.4891 20.9054C81.2152 17.7884 81.2592 14.6221 82.6375 11.5517C83.9089 8.71815 86.5989 7.27543 89.5479 7.6574C91.482 7.90761 93.0062 8.88984 94.2776 10.459C93.6652 11.2362 93.0578 12.0055 92.4416 12.7881C92.1133 12.4847 91.809 12.1825 91.4846 11.911C90.4697 11.0606 89.3379 10.5961 88.0174 10.7904C86.9937 10.9421 86.2379 11.5251 85.6934 12.4274C85.0973 13.4136 84.8709 14.5183 84.8018 15.6722C84.7175 17.083 84.832 18.4645 85.4004 19.7595C86.0531 21.2448 87.1233 22.0779 88.7305 22.054C89.7541 22.038 90.5892 21.5961 91.3299 20.8987C91.6342 20.6113 91.9222 20.3051 92.2504 19.9737C92.8754 20.6938 93.5005 21.4165 94.1569 22.1738L94.1557 22.1724Z" fill="white"/>
<path d="M167.976 1.91162V24.3217H164.995V23.9783C164.995 17.2731 164.996 10.5679 164.988 3.86408C164.988 3.6152 165.06 3.49542 165.266 3.38495C166.097 2.94175 166.919 2.47726 167.745 2.02076C167.813 1.98349 167.884 1.95554 167.976 1.91162V1.91162Z" fill="white"/>
<path d="M198.578 7.95654H201.654V24.8113H198.578V7.95654Z" fill="white"/>
<path d="M130.224 24.813V7.96753H133.288V24.813H130.224Z" fill="white"/>
<path d="M200.12 5.74487C199.001 5.74354 198.079 4.77729 198.092 3.62205C198.104 2.42423 199.007 1.48992 200.148 1.49391C201.242 1.49657 202.138 2.45084 202.141 3.61806C202.145 4.79193 201.238 5.74753 200.122 5.74487H200.12Z" fill="white"/>
<path d="M131.764 1.4939C132.879 1.4939 133.772 2.44417 133.772 3.63135C133.772 4.79458 132.876 5.74486 131.775 5.74619C130.651 5.74752 129.737 4.81055 129.723 3.64466C129.71 2.46813 130.633 1.4939 131.763 1.49523L131.764 1.4939Z" fill="white"/>
<defs>
<clipPath id="clip0_1_12272">
<rect width="72.9923" height="20.4891" fill="white" transform="translate(0.0380859 0.967773)"/>
</clipPath>
</defs>
</svg>
