<svg width="43" height="15" viewBox="0 0 43 15" fill="none" xmlns="http://www.w3.org/2000/svg">
<path d="M3.52368 14.6152C2.3943 14.6152 1.51338 14.2086 0.880921 13.3954C0.29364 12.5371 0 11.4529 0 10.1428C0 6.03183 1.94254 2.75661 5.82763 0.317139L7.25066 2.14674C4.94671 3.95376 3.79474 5.8963 3.79474 7.97437C4.65307 7.88403 5.39846 8.15508 6.03092 8.78753C6.66338 9.37482 6.9796 10.1428 6.9796 11.0915C6.9796 12.1305 6.64079 12.9888 5.96316 13.6665C5.3307 14.2989 4.51754 14.6152 3.52368 14.6152ZM13.4849 14.6152C12.3555 14.6152 11.4746 14.186 10.8421 13.3277C10.2096 12.4693 9.89342 11.4077 9.89342 10.1428C9.89342 6.07701 11.836 2.80179 15.7211 0.317139L17.1441 2.14674C14.8853 3.95376 13.7559 5.8963 13.7559 7.97437C14.6143 7.88403 15.3596 8.15508 15.9921 8.78753C16.6246 9.37482 16.9408 10.1428 16.9408 11.0915C16.9408 12.1305 16.602 12.9888 15.9243 13.6665C15.2919 14.2989 14.4787 14.6152 13.4849 14.6152Z" fill="#307FD3"/>
<path d="M28.875 0.452663C30.0496 0.452663 30.9305 0.881829 31.5178 1.74016C32.1503 2.55332 32.4665 3.61494 32.4665 4.92503C32.4665 7.09345 31.8792 9.01341 30.7047 10.6849C29.5753 12.3564 28.22 13.6891 26.6389 14.6829L25.2158 12.9211C27.4746 11.1141 28.6266 9.17152 28.6718 7.09345C27.8134 7.1838 27.068 6.93534 26.4356 6.34806C25.8031 5.7156 25.4869 4.92503 25.4869 3.97635C25.4869 2.93731 25.8031 2.10157 26.4356 1.46911C27.068 0.79148 27.8812 0.452663 28.875 0.452663ZM38.8362 0.452663C40.0108 0.452663 40.8917 0.881829 41.479 1.74016C42.1115 2.55332 42.4277 3.61494 42.4277 4.92503C42.4277 7.09345 41.8404 9.01341 40.6658 10.6849C39.5364 12.3564 38.1812 13.6891 36.6 14.6829L35.177 12.9211C37.4358 11.1141 38.5878 9.17152 38.6329 7.09345C37.7746 7.1838 37.0292 6.93534 36.3968 6.34806C35.7643 5.7156 35.4481 4.92503 35.4481 3.97635C35.4481 2.93731 35.7643 2.10157 36.3968 1.46911C37.0292 0.79148 37.8424 0.452663 38.8362 0.452663Z" fill="#307FD3"/>
</svg>
